<?xml version="1.0" standalone="no"?>
<!DOCTYPE svg PUBLIC "-//W3C//DTD SVG 20010904//EN"
 "http://www.w3.org/TR/2001/REC-SVG-20010904/DTD/svg10.dtd">
<svg version="1.0" xmlns="http://www.w3.org/2000/svg"
 width="942.000000pt" height="961.000000pt" viewBox="0 0 942.000000 961.000000"
 preserveAspectRatio="xMidYMid meet">

<g transform="translate(0.000000,961.000000) scale(0.100000,-0.100000)"
fill="#000000" stroke="none">
<path d="M5140 9554 c-74 -19 -218 -48 -320 -64 -878 -142 -855 -137 -1120
-265 -107 -51 -224 -101 -259 -110 -36 -9 -150 -27 -253 -41 -203 -26 -266
-43 -395 -106 -249 -121 -439 -294 -756 -688 -310 -385 -633 -765 -916 -1080
-190 -211 -485 -513 -477 -488 17 56 26 183 16 232 -9 43 -60 146 -72 146 -2
0 -4 -53 -4 -118 -2 -167 -31 -305 -130 -602 -46 -140 -93 -291 -104 -334 -23
-91 -35 -247 -22 -291 7 -27 13 -30 47 -30 58 0 68 25 60 148 -4 55 -3 97 2
97 5 0 20 -19 34 -42 20 -36 24 -56 23 -123 -1 -93 -19 -146 -132 -395 -138
-306 -146 -351 -137 -785 4 -181 8 -332 10 -335 11 -19 15 -196 6 -242 -12
-55 -54 -118 -93 -139 -20 -11 -21 -10 -14 122 4 74 9 148 11 164 2 17 6 66
10 110 3 44 12 163 20 265 7 102 17 230 20 285 3 55 8 128 11 163 12 149 6
627 -10 722 -35 216 -64 258 -143 210 l-33 -20 0 -1363 0 -1363 46 -220 c56
-273 118 -635 139 -819 23 -204 21 -199 71 -257 93 -108 200 -282 269 -436
104 -237 162 -417 306 -946 49 -182 101 -368 115 -414 l25 -82 80 0 c75 0 79
1 70 19 -62 114 -241 728 -241 823 0 18 2 18 33 -3 72 -51 187 -173 312 -334
234 -302 375 -407 599 -446 60 -10 66 -13 66 -35 l0 -24 178 1 c138 0 171 3
152 11 -93 41 -289 143 -360 188 -315 196 -653 522 -891 860 -44 62 -47 69
-53 155 -14 189 -66 370 -226 780 -162 416 -188 508 -195 698 -12 277 -13 285
-106 477 -73 152 -81 184 -94 355 -8 102 -9 586 -1 691 3 38 8 114 11 169 15
251 46 549 71 670 19 93 62 223 144 435 132 341 171 499 171 691 1 65 -4 143
-11 173 l-11 56 124 127 c178 183 383 413 761 853 182 212 423 491 537 621
113 130 258 305 321 390 185 247 306 352 434 379 27 5 108 16 179 25 229 26
297 53 513 209 214 153 247 164 600 196 301 28 384 42 705 121 381 94 519 113
752 106 210 -6 284 -22 431 -91 289 -137 792 -485 1006 -696 119 -117 128
-135 128 -255 1 -127 17 -162 155 -330 120 -145 175 -263 175 -374 l0 -60 30
11 c158 55 422 -225 509 -540 24 -86 16 -91 -53 -31 -38 34 -60 69 -116 183
-80 163 -123 219 -194 252 -84 39 -87 35 -61 -91 30 -142 100 -257 295 -490
332 -395 372 -481 586 -1257 87 -319 125 -438 269 -853 178 -514 266 -850 310
-1180 12 -88 13 -189 9 -500 -11 -709 -9 -828 20 -1030 59 -417 51 -456 -158
-805 -156 -259 -207 -385 -306 -760 -64 -243 -102 -367 -140 -460 -17 -40 -30
-75 -30 -77 0 -2 45 -2 101 -1 l100 3 54 160 c59 178 116 311 260 615 119 250
195 422 245 557 39 104 100 304 100 329 0 9 11 14 30 14 l30 0 0 276 0 276
-32 26 c-195 163 -229 337 -159 826 l31 219 0 541 c0 298 -2 561 -4 586 -3 25
-7 101 -11 170 -18 363 -71 586 -203 855 -84 171 -153 287 -334 558 -367 549
-413 654 -513 1156 -74 370 -121 454 -430 771 -94 96 -248 270 -342 385 -318
390 -551 635 -774 815 -255 206 -508 331 -728 361 -122 17 -121 17 -121 44 l0
25 -252 -1 c-253 -1 -253 -1 -388 -35z m3823 -4339 c49 -151 67 -256 73 -415
l5 -135 -54 150 c-30 83 -90 242 -134 355 -45 113 -99 261 -121 330 -38 118
-92 338 -92 375 0 9 65 -111 144 -267 96 -190 155 -319 179 -393z m-8725
-2122 c77 -183 125 -344 242 -803 98 -387 171 -636 229 -778 20 -51 20 -52 1
-42 -28 15 -104 112 -149 189 -137 233 -250 663 -341 1291 -17 118 -33 225
-36 238 -9 45 5 19 54 -95z"/>
<path d="M6180 8004 c-193 -34 -191 -33 -215 -121 -24 -90 -111 -261 -177
-348 -29 -38 -145 -164 -257 -280 -281 -289 -352 -381 -415 -539 -51 -127 -70
-308 -46 -435 22 -117 146 -347 310 -576 186 -257 315 -376 515 -475 325 -159
814 -240 1376 -228 211 4 224 8 386 114 173 112 276 221 349 369 67 137 86
223 87 390 0 379 -177 769 -574 1265 -366 458 -624 707 -825 796 -78 34 -241
65 -373 69 -64 2 -127 2 -141 -1z m94 -144 c19 -1 18 -4 -12 -30 -25 -24 -42
-30 -76 -30 -49 0 -87 29 -64 47 24 19 43 23 87 18 24 -3 53 -5 65 -5z m316
-36 c84 -24 184 -81 239 -135 49 -49 102 -143 115 -205 l7 -31 -83 -5 c-233
-13 -322 -148 -327 -495 l-2 -112 40 -44 c94 -102 228 -142 526 -159 221 -13
238 -10 279 45 18 25 22 47 26 169 l5 140 70 -82 c200 -234 358 -549 421 -840
26 -118 26 -358 0 -450 -31 -112 -89 -211 -169 -287 -117 -110 -259 -172 -456
-198 -452 -61 -1089 75 -1449 308 -183 119 -382 368 -530 663 -75 150 -86 193
-85 309 2 173 60 334 180 502 131 184 290 333 669 629 120 95 255 203 298 241
l80 70 45 -9 c25 -4 71 -15 101 -24z"/>
<path d="M2510 6654 c-622 -78 -1091 -441 -1225 -949 -20 -76 -28 -134 -32
-240 -7 -174 2 -212 97 -415 84 -180 105 -241 119 -345 11 -75 1 -221 -16
-248 -9 -14 159 -177 262 -254 236 -177 507 -261 753 -234 125 14 239 44 327
86 266 128 883 838 1085 1250 86 175 131 440 101 587 -22 105 -101 177 -193
178 -46 0 -46 2 -12 -132 34 -137 42 -305 20 -408 -50 -236 -343 -640 -752
-1040 -159 -155 -293 -264 -386 -315 -132 -72 -455 -75 -641 -5 -160 60 -298
193 -378 363 -62 133 -101 374 -91 558 l4 65 96 0 c210 1 361 85 435 242 29
61 32 75 32 167 0 88 -3 107 -27 157 -69 148 -236 248 -415 248 -35 0 -63 4
-63 8 0 4 45 56 100 114 211 225 408 357 620 418 102 29 289 38 385 17 222
-48 347 -143 605 -457 140 -171 226 -258 311 -314 58 -38 83 -40 94 -5 9 26
-8 52 -91 141 -41 43 -74 87 -74 98 0 21 39 47 123 80 54 21 107 67 107 93 0
17 -64 86 -135 148 -183 157 -407 265 -660 319 -98 21 -394 35 -485 24z"/>
<path d="M6328 3250 c-24 -13 -41 -31 -45 -48 -11 -39 -10 -372 2 -537 6 -77
10 -232 10 -345 0 -230 -1 -232 -75 -308 -104 -108 -301 -190 -533 -221 -116
-16 -383 -14 -504 5 -289 42 -505 152 -603 305 -18 27 -52 109 -76 180 -70
211 -116 278 -215 319 -39 17 -48 7 -80 -89 -28 -84 -30 -219 -5 -305 70 -238
285 -475 551 -607 183 -91 376 -122 755 -123 348 0 475 27 657 140 94 58 251
211 351 342 l72 94 2 226 c6 690 3 742 -61 878 -47 100 -125 136 -203 94z"/>
</g>
</svg>
